{"title":"Sin.City.2005.720p.BRRip.x264.AAC.mp4-Zen_Bud","uid":6456584,"size":1473167445,"categoryP":"video","categoryS":"hd___movies","magnet":"?xt=urn:btih:3333eec3e2adc59193cdff8a50b2a6b0c3815e32&amp;dn=Sin.City.2005.720p.BRRip.x264.AAC.mp4-Zen_Bud&amp;tr=udp%3A%2F%2Ftracker.openbittorrent.com%3A80&amp;tr=udp%3A%2F%2Fopen.demonii.com%3A1337&amp;tr=udp%3A%2F%2Ftracker.coppersurfer.tk%3A6969&amp;tr=udp%3A%2F%2Fexodus.desync.com%3A6969","seeders":1,"leechers":0,"uploader":"Zen_Bud","files":-1,"time":1307609591,"description":"---------- Sin.City.2005.720p.BRRip.x264.AAC.mp4-Zen_Bud ----------\n\nFormat                           : MPEG-4\nFile size                        : 1.37 GiB\nDuration                         : 2h 3mn\nOverall bit rate                 : 1 584 Kbps\n\n\nVideo\n\nFormat                           : AVC\nFormat profile                   : &lt;a class=&quot;__cf_email__&quot; href=&quot;/cdn-cgi/l/email-protection&quot; data-cfemail=&quot;cb86aaa2a58b87f8e5fa&quot;&gt;[email&amp;#160;protected]&lt;/a&gt;&lt;script cf-hash='f9e31' type=&quot;text/javascript&quot;&gt;\n/* &lt;![CDATA[ */!function(){try{var t=&quot;currentScript&quot;in document?document.currentScript:function(){for(var t=document.getElementsByTagName(&quot;script&quot;),e=t.length;e--;)if(t[e].getAttribute(&quot;cf-hash&quot;))return t[e]}();if(t&amp;&amp;t.previousSibling){var e,r,n,i,c=t.previousSibling,a=c.getAttribute(&quot;data-cfemail&quot;);if(a){for(e=&quot;&quot;,r=parseInt(a.substr(0,2),16),n=2;a.length-n;n+=2)i=parseInt(a.substr(n,2),16)^r,e+=String.fromCharCode(i);e=document.createTextNode(e),c.parentNode.replaceChild(e,c)}}}catch(u){}}();/* ]]&gt; */&lt;/script&gt;\nFormat settings, CABAC           : Yes\nFormat settings, ReFrames        : 4 frames\nDuration                         : 2h 3mn\nBit rate                         : 1 387 Kbps\nWidth                            : 1 280 pixels\nHeight                           : 690 pixels\nDisplay aspect ratio             : 1.855\nStream size                      : 1.20 GiB (88%)\nWriting library                  : x264 core 115\n\n\nAudio\n\nFormat                           : AAC\nDuration                         : 2h 3mn\nBit rate                         : 192 Kbps\nChannel(s)                       : 2 channels\nChannel positions                : Front: L R\nSampling rate                    : 48.0 KHz\nStream size                      : 170 MiB (12%)\nLanguage                         : English\n\n\nSubtitel                         : Svenska [.srt ]\n\n\n====================================================================\n\nA film that explores the dark and miserable town, Basin City, and tells the story of three different people, all caught up in violent corruption. \n\n====================================================================","torrent":{"xt":"urn:btih:3333eec3e2adc59193cdff8a50b2a6b0c3815e32","amp;dn":"Sin.City.2005.720p.BRRip.x264.AAC.mp4-Zen_Bud","amp;tr":["udp%3A%2F%2Ftracker.openbittorrent.com%3A80","udp%3A%2F%2Fopen.demonii.com%3A1337","udp%3A%2F%2Ftracker.coppersurfer.tk%3A6969","udp%3A%2F%2Fexodus.desync.com%3A6969"],"infoHash":"3333eec3e2adc59193cdff8a50b2a6b0c3815e32","infoHashBuffer":{"type":"Buffer","data":[51,51,238,195,226,173,197,145,147,205,255,138,80,178,166,176,195,129,94,50]},"announce":[],"urlList":[]}}